<?xml version="1.0" encoding="UTF-8"?>
<svg id="Layer_2" data-name="Layer 2" xmlns="http://www.w3.org/2000/svg" viewBox="0 0 929.99 237.93">
  <defs>
    <style>
      .cls-1 {
        fill: #fff;
      }
    </style>
  </defs>
  <g id="Layer_1-2" data-name="Layer 1">
    <g>
      <g>
        <path class="cls-1" d="m59.39,111.83c.02-6.36.03-12.73.05-19.09-19.82.04-39.63.09-59.44.13v143.02c7.43-1.28,14.87-2.53,22.32-3.75.02-20.23.04-40.47.07-60.7,9.63-.9,19.27-1.76,28.92-2.6.02-6.42.03-12.85.05-19.27-9.65.63-19.3,1.28-28.94,1.96.01-12.94.03-25.87.04-38.81,12.31-.31,24.63-.61,36.95-.89Z"/>
        <path class="cls-1" d="m92.33,203.21c.14-36.85.28-73.69.42-110.54-7.49.01-14.98.03-22.47.04-.13,44.03-.27,88.05-.4,132.08,19.73-2.87,39.49-5.53,59.26-7.97.03-5.91.06-11.83.08-17.74-12.3,1.3-24.6,2.68-36.89,4.13Z"/>
        <path class="cls-1" d="m189.17,92.51c-10.15.01-20.29.03-30.44.05-7.97,40.3-15.94,81.45-23.89,123.57,6.93-.84,13.87-1.66,20.81-2.44,1.4-8.06,2.81-16.08,4.21-24.08,8.5-.77,17.01-1.5,25.52-2.21,0-.11,0-.23,0-.34,1.32,7.7,2.64,15.37,3.96,23.01,7.49-.76,14.98-1.48,22.47-2.18-7.55-37.75-15.09-76.18-22.64-115.38Zm-26.58,80.52c3.37-20.08,6.75-39.97,10.12-59.7.14,0,.27,0,.41,0,3.23,19.59,6.46,39,9.69,58.25-6.74.47-13.48.96-20.22,1.46Z"/>
        <path class="cls-1" d="m284.38,92.4c-4.9,26.19-9.81,52.61-14.72,79.27-.14,0-.27.01-.41.02-4.63-26.18-9.26-52.59-13.88-79.27-10.69.01-21.39.02-32.08.04-.21,38.15-.43,76.3-.64,114.44,6.54-.58,13.08-1.14,19.63-1.67.16-28.47.32-56.93.47-85.4.14,0,.27,0,.41,0,5.29,28.34,10.59,56.36,15.9,84.09,6.27-.47,12.55-.92,18.82-1.35,5.6-28.18,11.2-56.06,16.79-83.68.14,0,.27,0,.41,0-.14,27.53-.27,55.06-.41,82.59,7.1-.44,14.19-.86,21.29-1.24.16-35.95.32-71.91.49-107.86-10.69,0-21.38.02-32.07.03Z"/>
        <path class="cls-1" d="m355.36,183.22c.04-10.86.08-21.71.12-32.57,10.3-.23,20.6-.43,30.91-.59.01-5,.03-10,.04-15-10.3.12-20.6.27-30.89.44.03-9.34.07-18.68.1-28.02,8.64-.05,17.28-.1,25.91-.14-.84-2.01-1.51-4.17-1.95-6.49-.25-.95-.89-3.92-.62-8.52-15.25,0-30.51.02-45.76.03-.15,35.67-.29,71.34-.44,107.01,20.49-.99,40.98-1.75,61.48-2.28.01-4.99.02-9.98.04-14.97-12.98.29-25.96.65-38.93,1.1Z"/>
        <path class="cls-1" d="m465.61,154.19c-3.56-4.84-10.04-10.24-19.44-16.14-7.37-4.63-12.44-8.57-15.23-11.82-2.8-3.26-4.19-6.77-4.18-10.55,0-6.64,3.76-9.98,11.25-9.99,3.68,0,6.47.81,8.38,2.44,1.91,1.63,2.86,4.23,2.86,7.79,0,1.78,0,3.56,0,5.34,6.28-.01,12.56-.01,18.84-.01.85-.41,1.65-.83,2.43-1.26,0-1.01,0-2.03,0-3.04,0-6.83-1.82-12.38-5.48-16.62,0,0,0,0,0,0-.84-.98-1.78-1.89-2.81-2.73-.58-.47-1.18-.92-1.81-1.32-2.12-1.42-4.56-2.56-7.33-3.41-3.07-.97-6.55-1.58-10.43-1.84-1.55-.12-3.16-.17-4.84-.17-1.87,0-3.67.07-5.39.2-2.1,5.79-6.26,8.72-6.92,9.15-2.61,1.72-5.22,3.44-7.83,5.16-.53-.78-1.06-1.56-1.6-2.34-.29.69-.53,1.37-.68,2.04-.05.22-.1.44-.15.66-.42,2.04-.43,3.57-.36,4.52,0,.11.02.21.03.31.07.39.15.78.22,1.17.81,4.43,4.05,7.76,9.62,9.93-2.02,3.58-4.05,7.17-6.07,10.76-2.95-.61-7.06-1.63-11.51-3.3.73,1.39,1.59,2.73,2.58,4.03,3.68,4.8,10.14,10.13,19.42,16.01,7.36,4.6,12.41,8.56,15.14,11.87,2.72,3.3,4.09,7.13,4.08,11.48,0,3.66-1,6.31-2.97,7.96-1.98,1.65-4.89,2.48-8.71,2.52-7.79.07-11.68-3.24-11.67-9.99,0-2.38,0-4.76,0-7.14-7.1.07-14.2.17-21.3.28,0,1.99,0,3.98-.01,5.97-.02,8.47,2.77,14.91,8.37,19.33,5.59,4.42,13.86,6.52,24.8,6.41,11.07-.11,19.51-2.41,25.32-6.97,5.81-4.55,8.72-11.07,8.72-19.58,0-6.53-1.78-12.22-5.33-17.07Zm-46.83-60.05c.46.51.92,1.08,1.36,1.73,0,0,1.58-1.04,3.05-3.28-1.56.43-3.03.95-4.4,1.55Zm-11.59,18.38s-.05-.17-.12-.49c-.06-.33-.13-.81-.18-1.44-.12-1.44-.07-3.65.6-6.48.05-.23.11-.46.18-.69-2.28,3.72-3.42,8.19-3.43,13.39,0,1.44.09,2.85.3,4.22,5.98,3.18,12.2,4.89,16.39,5.75-5.76-2.23-12.31-6.47-13.75-14.27Z"/>
        <path class="cls-1" d="m486.61,92.31c-.94,0-1.88,0-2.82,0,0,4.89,0,9.77,0,14.66,2.4-4.75,3.09-9.79,2.81-14.66Zm58.27.02c-4.7,25.05-9.42,50.01-14.14,74.89-.13,0-.27,0-.4,0-4.84-25.04-9.66-50-14.48-74.89-7.08,0-14.17,0-21.25,0,.28,5.35-.51,10.95-3.12,16.29-1.82,3.73-4.39,7.1-7.69,10.08.02,25.85.03,51.7.05,77.56,6.56.05,13.12.11,19.68.21-.04-26.28-.07-52.56-.11-78.84.14,0,.27,0,.41,0,5.49,26.3,10.99,52.66,16.5,79.12,6.29.13,12.58.28,18.87.45,5.4-26.31,10.79-52.72,16.16-79.26.13,0,.27,0,.4,0,.08,26.59.16,53.18.24,79.76,7.11.24,14.21.5,21.32.79-.13-35.38-.26-70.76-.38-106.13-10.69,0-21.38-.01-32.07-.02Z"/>
        <path class="cls-1" d="m651.56,98.07c-5.88-4.85-14.34-7.24-25.37-7.24-11.03,0-19.47,2.38-25.31,7.05-5.83,4.68-8.74,11.26-8.7,19.8.08,18.71.15,37.42.23,56.13.03,8.55,3,15.26,8.88,20.23,5.9,4.98,14.38,7.78,25.44,8.45,11.06.67,19.51-1.15,25.35-5.6,5.85-4.44,8.74-11.11,8.7-19.99-.1-19.41-.21-38.82-.31-58.23-.05-8.86-3.01-15.76-8.9-20.61Zm-13.3,78.77c.04,7.19-3.83,10.56-11.61,10.15-7.78-.4-11.69-4.13-11.72-11.22-.09-19.63-.18-39.26-.27-58.88-.03-7.09,3.84-10.61,11.61-10.55,7.76.06,11.66,3.69,11.7,10.87.1,19.88.2,39.75.3,59.63Z"/>
        <path class="cls-1" d="m721.61,92.48c-4.74,29.93-9.47,59.51-14.21,88.77-.14,0-.27-.02-.41-.03-5.07-29.92-10.14-59.51-15.21-88.78-7.56,0-15.12-.02-22.68-.03,7.42,37.14,14.85,74.82,22.29,113.12,9.95.82,19.9,1.7,29.85,2.64,7-37.89,14-76.41,21-115.66-6.88,0-13.75-.02-20.63-.03Z"/>
        <path class="cls-1" d="m753.07,92.53c.22,39.63.43,79.26.65,118.89,7.49.79,14.97,1.62,22.45,2.47-.21-40.44-.42-80.88-.63-121.33-7.49-.01-14.98-.02-22.47-.03Z"/>
        <path class="cls-1" d="m853.65,111.44c-.02-6.25-.04-12.5-.06-18.74-20.43-.04-40.86-.08-61.3-.11.2,41.09.4,82.17.6,123.26,20.4,2.46,40.77,5.14,61.12,8.06-.02-6.25-.04-12.5-.06-18.74-12.89-1.59-25.8-3.09-38.71-4.52-.06-12.9-.11-25.81-.17-38.71,10.27.74,20.53,1.5,30.8,2.3-.02-6.19-.04-12.39-.07-18.58-10.27-.6-20.54-1.17-30.81-1.72-.05-11.1-.1-22.2-.15-33.31,12.93.26,25.87.53,38.8.82Z"/>
        <path class="cls-1" d="m924.69,177.53c-3.53-6.99-9.97-14.95-19.36-23.57-7.34-6.75-12.42-12.25-15.21-16.69-2.79-4.44-4.19-9.09-4.2-14.01-.02-8.66,3.71-12.92,11.19-12.76,3.68.08,6.47,1.24,8.38,3.46,1.9,2.24,2.86,5.76,2.87,10.54,0,2.39,0,4.78,0,7.17,7.07.33,14.14.67,21.21,1.02,0-1.97,0-3.94,0-5.92,0-11.58-2.76-20.55-8.28-26.74-5.51-6.2-13.65-9.21-24.41-9.21-10.9,0-19.2,2.96-24.91,8.7-5.7,5.75-8.54,13.78-8.51,24.26.02,7.7,1.88,14.69,5.57,21.07,3.69,6.39,10.15,13.73,19.41,22.31,7.34,6.73,12.37,12.55,15.09,17.27,2.71,4.71,4.07,10.02,4.08,15.86,0,4.91-.98,8.33-2.93,10.24-1.97,1.91-4.84,2.59-8.63,2.06-7.73-1.09-11.6-5.99-11.62-14.77,0-3.1-.01-6.2-.02-9.31-7.06-.77-14.12-1.53-21.18-2.26,0,2.52.01,5.05.02,7.57.03,10.73,2.84,19.3,8.42,25.89,5.57,6.59,13.77,10.79,24.61,12.54,10.96,1.78,19.31.16,25.06-5.13,5.75-5.27,8.63-13.85,8.63-25.56,0-8.99-1.77-17.05-5.3-24.04Z"/>
      </g>
      <g>
        <path class="cls-1" d="m387.98,83.87s0-.01.01-.02v.02h-.01Z"/>
        <path class="cls-1" d="m388.39,81.78l2.58.45-2.58-.44c-.05.21-.09.42-.13.63h0c-.06.26-.1.51-.14.76-.02.07-.03.14-.05.22-.01.07-.02.15-.03.22,0,0-.01,0-.01.01,0,.03-.01.07-.02.1,0-.03,0-.06,0-.1l-.08-.02h.09c.01-.06.02-.13.03-.19.01-.07.03-.15.04-.24v-.02s.01-.01.01-.02h0s.01-.05.01-.06v-.04c.02-.09.04-.17.05-.25h0c.02-.13.04-.25.06-.37.02-.1.04-.21.06-.31v-.02c.02-.1.03-.21.05-.31h0c.03-.14.05-.27.07-.41h.01s-.01-.02-.01-.02c.03-.12.05-.23.07-.34h0c.02-.1.03-.19.04-.27v-.02h0s.01-.01.01-.01l.1.02h0c-.02.1-.05.2-.06.29h-.01c-.03.12-.05.23-.08.34v.02c-.03.13-.06.26-.09.4Z"/>
        <path class="cls-1" d="m389.19,78.61l4.69.79-4.69-.78s-.02.07-.03.1c-.01.04-.02.09-.04.13v.03s-.02.07-.03.1c0,.02,0,.03-.02.05-.02.08-.04.16-.06.24l-.23-.03s.01-.08.02-.12v-.02s.02-.09.02-.12c.01-.01.01-.02.01-.03h0s0-.08.02-.11h0v-.02s.01,0,.01,0c0-.02,0-.04.01-.05v-.04s.01-.01.01-.01c-.01-.01,0-.02,0-.03h0s.01-.06.01-.08v-.05l.3.06Z"/>
        <path class="cls-1" d="m404.31,126.38c0-7.11,1.13-13.22,3.4-18.31-.07.31-.13.62-.18.94-.67,3.87-.71,6.9-.59,8.87.05.86.12,1.52.18,1.97.07.44.12.67.12.67,1.45,10.68,8,16.54,13.76,19.65-4.18-1.22-10.4-3.62-16.38-8.02-.21-1.87-.31-3.8-.31-5.77Z"/>
        <path class="cls-1" d="m418.79,95.37c1.37-.83,2.84-1.54,4.4-2.13-1.46,3.08-3.04,4.5-3.04,4.5-.44-.89-.9-1.67-1.36-2.37Z"/>
        <path class="cls-1" d="m470.51,126.79v4.19c-.78.59-1.58,1.17-2.43,1.73h-18.15l-.12-.27c8.06-4.57,9.52-12.65,8.78-19.97-1.2.38-2.15.46-2.63.47l-7.77.18-.41-7.76c-.32-6.12-3.09-11.29-5.12-14.29,3.88.36,7.36,1.21,10.43,2.54,2.77,1.18,5.21,2.74,7.33,4.7.34-1.38.62-3.06.78-5.08,0,0,2.22,4.41,3.84,10.66h0c3.65,5.86,5.47,13.49,5.47,22.9Z"/>
        <path class="cls-1" d="m483.79,113.04v-20.17h2.82c.28,6.69-.42,13.63-2.82,20.17Z"/>
        <path class="cls-1" d="m486.61,92.87h-2.82v20.17c-2.43,6.62-6.61,12.83-13.28,17.94v-4.19c0-9.41-1.82-17.04-5.47-22.89h0c-1.62-6.26-3.84-10.67-3.84-10.67-.16,2.02-.44,3.7-.78,5.08-2.12-1.96-4.56-3.52-7.33-4.7-1.43-3.43-3.2-6.24-4.65-8.24-1.22-1.66-2.65-3.15-4.21-4.49-10.18-8.72-5.16-22.16-5.16-22.16-14.64,5.06-13.54,19.47-13.54,19.47.57,6.95-.83,11.88-2.34,15.05-1.56.59-3.03,1.3-4.4,2.13-3.7-5.62-7.78-5.66-7.9-5.66,1.71,2.76,1.05,6.02.2,8.27-.18.49-.37.97-.55,1.44-1.13,2.91-2.23,5.66-2.83,8.65-2.27,5.09-3.4,11.2-3.4,18.31,0,1.97.1,3.9.31,5.77-.91-.67-1.81-1.38-2.7-2.14-4.73-4.05-9.08-9.48-11.84-16.71-1.18-3.07-2.06-6.47-2.57-10.23,0,0-.82-3.67-.53-10.2.12-2.57.42-5.59,1-9h.01v-.02s0-.03.01-.05c0-.02,0-.05.01-.07,0-.03.02-.07.02-.1,0-.01.01-.01.01-.01.01-.07.02-.15.03-.22.02-.08.03-.15.05-.22.04-.25.08-.5.14-.75h0c.04-.22.08-.43.13-.64l2.58.44-2.58-.45c.03-.14.06-.27.09-.4v-.02c.03-.11.05-.22.08-.33h.01c.01-.1.04-.2.06-.29h0c.02-.08.04-.15.06-.23.1-.41.2-.82.32-1.23h0c.02-.09.04-.17.06-.25.01-.02.01-.03.02-.05.01-.03.02-.07.03-.1v-.03s.03-.09.04-.13c.01-.03.02-.07.03-.1l4.69.78-4.69-.79c.78-2.74,1.77-5.4,2.81-8.11.63-1.65,1.29-3.31,1.93-5.02,1.41-3.75,2.52-9.2-.33-13.79.2,0,8.79.08,15.44,13.38,0,0,10.83-9.78,8.98-32.6,0,0-1.85-24.02,22.57-32.47,0,0-8.37,22.42,8.6,36.96,2.6,2.23,4.99,4.71,7.02,7.49,4.73,6.5,11.47,18.15,12.23,32.63,0,0,7.48-.17,9.06-19.53,0,0,8.36,16.63,9.11,35.32Z"/>
        <path class="cls-1" d="m388.39,81.78l2.58.45-2.58-.44h0Z"/>
        <polygon class="cls-1" points="389.19 78.61 393.88 79.4 389.19 78.62 389.19 78.61"/>
        <path class="cls-1" d="m421,140.17c-4.18-1.22-10.4-3.62-16.38-8.02-.21-1.87-.31-3.8-.31-5.77,0-7.11,1.13-13.22,3.4-18.31-.07.31-.13.62-.18.94-.67,3.87-.71,6.9-.59,8.87.05.86.12,1.52.18,1.97.07.44.12.67.12.67,1.45,10.68,8,16.54,13.76,19.65Z"/>
        <path class="cls-1" d="m418.79,95.37c1.37-.83,2.84-1.54,4.4-2.13-1.46,3.08-3.04,4.5-3.04,4.5-.44-.89-.9-1.67-1.36-2.37Z"/>
        <path class="cls-1" d="m453.09,93.61c2.77,1.18,5.21,2.74,7.33,4.7-1.59,6.56-4.65,6.63-4.65,6.63-.22-4.23-1.3-8.07-2.68-11.33Z"/>
        <path class="cls-1" d="m465.04,103.9c3.65,5.85,5.47,13.48,5.47,22.89v4.19c-.78.59-1.58,1.17-2.43,1.73h-6.51c6.73-8.79,5.64-20.45,3.47-28.81Z"/>
        <path class="cls-1" d="m483.79,113.04v-20.17h2.82c.28,6.69-.42,13.63-2.82,20.17Z"/>
        <path class="cls-1" d="m388.48,81.38c-.03.13-.06.26-.09.4h-.05c.03-.14.05-.27.07-.41h.07Z"/>
        <path class="cls-1" d="m388.57,81.02h-.01c-.03.12-.05.23-.08.34h-.06s-.01-.01-.01-.01c.03-.12.05-.23.07-.34h0s.09.01.09.01Z"/>
        <path class="cls-1" d="m388.48,81.01c-.02.11-.04.23-.06.34-.01.01-.01.02-.01.02t0-.02c.03-.12.05-.23.07-.34Z"/>
        <path class="cls-1" d="m388.63,80.74c-.02.09-.05.19-.06.28h-.01s-.08-.01-.08-.01h0c.02-.1.03-.19.04-.27v-.02l.11.02Z"/>
        <path class="cls-1" d="m388.53,80.71h-.01s0,0,0,0h.01Z"/>
        <path class="cls-1" d="m388.39,81.79c-.05.21-.09.42-.13.63h-.03c.02-.1.04-.21.06-.31v-.02c.02-.1.03-.21.05-.31h.03s.02.01.02.01Z"/>
        <path class="cls-1" d="m388.23,82.42c.04-.21.07-.43.11-.65-.04.21-.07.42-.11.65Z"/>
        <path class="cls-1" d="m388.26,82.43c-.06.25-.1.5-.14.75h-.02v-.02s.01-.01.01-.02h0s.01-.05.01-.06v-.04c.02-.09.04-.17.05-.25h0c.02-.13.04-.25.06-.37h.03Z"/>
        <path class="cls-1" d="m388.1,83.18c.05-.26.09-.52.13-.75-.05.28-.09.54-.13.75Z"/>
        <path class="cls-1" d="m388.04,83.62s-.01,0-.01.01h-.01l-.08-.02h.09s.01.01.01.01Z"/>
        <path class="cls-1" d="m388.03,83.62s0,0,0,.01c0,0,0,0,0-.01Z"/>
        <path class="cls-1" d="m388.12,83.18c-.02.07-.03.14-.05.22-.01.07-.02.15-.03.22,0,0-.01,0-.01.01h-.01l-.08-.02h.09c.01-.06.02-.13.03-.19.01-.07.03-.15.04-.24h.02Z"/>
        <path class="cls-1" d="m388.1,83.18c-.01.07-.02.14-.03.22-.01,0-.01.01-.01.02.01-.07.03-.15.04-.24Z"/>
        <path class="cls-1" d="m389.09,78.98s0,.03-.02.05c-.02.08-.04.16-.06.24l-.23-.03s.01-.08.02-.12v-.02s.02-.09.02-.12c.01-.01.01-.02.01-.03h0s.26.03.26.03Z"/>
        <path class="cls-1" d="m388.77,79.32c.03-.15.05-.27.06-.38-.02.11-.04.24-.06.38Z"/>
        <path class="cls-1" d="m389.16,78.72s-.02.09-.04.13l-.26-.04s0-.04.01-.05v-.04s.01-.01.01-.01c-.01-.01,0-.02,0-.03l.28.04Z"/>
        <path class="cls-1" d="m388.85,78.84c.01-.06.02-.12.03-.17,0,.05-.02.1-.03.17Z"/>
        <path class="cls-1" d="m389.12,78.88s-.02.07-.03.1c0,.02,0,.03-.02.05l-.25-.05s.01-.02.01-.03h0s0-.08.02-.11h0s.27.04.27.04Z"/>
        <path class="cls-1" d="m388.83,78.95s.01-.07.02-.11c0,.03-.01.07-.02.11Z"/>
        <path class="cls-1" d="m389.19,78.62s-.02.07-.03.1l-.28-.05s.01-.05.01-.07v-.03l.3.05Z"/>
        <path class="cls-1" d="m388.88,78.67s0-.05.01-.07c0,.02,0,.05-.01.07Z"/>
        <path class="cls-1" d="m388.9,78.52s0-.03,0,0h0Z"/>
        <path class="cls-1" d="m388.89,78.6s0-.02,0-.03c0,0,0,.02,0,.03Z"/>
        <path class="cls-1" d="m388.89,78.6s0-.02,0-.03c0,0,0,.02,0,.03Z"/>
        <path class="cls-1" d="m388.89,78.57s0-.03,0-.04c0,.01,0,.03,0,.04Z"/>
        <path class="cls-1" d="m388.89,78.57s0-.03,0-.04c0,.01,0,.03,0,.04Z"/>
      </g>
    </g>
  </g>
</svg>